<svg class="svg-icon" style="width: 1em; height: 1em;vertical-align: middle;fill: currentColor;overflow: hidden;" viewBox="0 0 1024 1024" version="1.1" xmlns="http://www.w3.org/2000/svg"><path d="M924.9 440.8c-74.4 59.1-212.5 98.9-370.7 98.9-161.5 0-302.2-41.4-375.3-102.7v382.7c0 40 32.4 72.4 72.4 72.4h605.9c40 0 72.4-32.4 72.4-72.4V436.8c-1.6 1.3-3 2.7-4.7 4z" fill="#B7713D" /><path d="M924.9 440.8c-27.7 22.1-64.4 41.4-107.6 57v225.6c0 40-32.4 72.4-72.4 72.4h-566v23.9c0 40 32.4 72.4 72.4 72.4h605.9c40 0 72.4-32.4 72.4-72.4V436.8c-1.6 1.3-3 2.7-4.7 4z" fill="#8E5630" /><path d="M857.2 325.2H251.3c-40 0-72.4 32.4-72.4 72.4V437c73.2 61.2 213.8 102.7 375.3 102.7 158.1 0 296.3-39.7 370.7-98.9 1.6-1.3 3.1-2.7 4.7-4v-39.2c0-40-32.4-72.4-72.4-72.4z" fill="#B7713D" /><path d="M861.1 325.5c2.6 7.5 4.4 15.5 4.4 23.9v39.2c-1.6 1.3-3 2.7-4.7 4-74.4 59.1-212.5 98.9-370.7 98.9-122.6 0-233-23.9-311.2-62.2v7.6c73.2 61.2 213.8 102.7 375.3 102.7 158.1 0 296.3-39.7 370.7-98.9 1.6-1.3 3.1-2.7 4.7-4v-39.2c0-38.6-30.4-69.9-68.5-72z" fill="#8E5630" /><path d="M711 860.3H191.4c-50.1 0-90.8-40.7-90.8-90.8v-62.3c0-8.3 6.7-15 15-15s15 6.7 15 15v62.3c0 33.5 27.3 60.8 60.8 60.8H711c8.3 0 15 6.7 15 15s-6.7 15-15 15zM790.5 860.3c-8.3 0-15-6.7-15-15s6.7-15 15-15c33.5 0 60.8-27.3 60.8-60.8V354.2c0-33.5-27.3-60.8-60.8-60.8H191.4c-33.5 0-60.8 27.3-60.8 60.8v130.5c0 8.3-6.7 15-15 15s-15-6.7-15-15V354.2c0-50.1 40.7-90.8 90.8-90.8h599.1c50.1 0 90.8 40.7 90.8 90.8v415.3c0 50.1-40.7 90.8-90.8 90.8zM115.6 658.1c-8.3 0-15-6.7-15-15v-92.2c0-8.3 6.7-15 15-15s15 6.7 15 15v92.2c0 8.3-6.7 15-15 15z" fill="" /><path d="M630.8 288.2c-13.8 0-25-11.2-25-25v-64.4c0-9.9-8-17.9-17.9-17.9h-190c-9.9 0-17.9 8-17.9 17.9v64.4c0 13.8-11.2 25-25 25s-25-11.2-25-25v-64.4c0-37.4 30.5-67.9 67.9-67.9h190c37.4 0 67.9 30.5 67.9 67.9v64.4c0 13.8-11.2 25-25 25z" fill="" /><path d="M492.9 563.2c-13.8 0-25-11.2-25-25V432.4c0-13.8 11.2-25 25-25s25 11.2 25 25v105.8c0 13.8-11.2 25-25 25z" fill="" /></svg>